<?xml version="1.0" encoding="UTF-8"?>
<svg id="Layer_2" data-name="Layer 2" xmlns="http://www.w3.org/2000/svg" viewBox="0 0 48 48">
  <defs>
    <style>
      .cls-1 {
        fill: #fff;
      }
    </style>
  </defs>
  <path class="cls-1" d="M43.91,37h-.91V15.79c0-2.09-1.7-3.79-3.79-3.79h-2.21v-6.61c0-1.32-1.07-2.39-2.39-2.39h-5.22c-1.32,0-2.39,1.07-2.39,2.39v1.63c-.06,0-.13-.02-.19-.02h-5.62c-.07,0-.13.01-.19.02v-1.63c0-1.32-1.07-2.39-2.39-2.39h-5.22c-1.32,0-2.39,1.07-2.39,2.39v6.61h-2.21c-2.09,0-3.79,1.7-3.79,3.79v21.21h-1c-.55,0-1,.45-1,1v1.96c0,2.78,2.26,5.04,5.04,5.04h31.82c2.78,0,5.04-2.26,5.04-5.04v-1.96c0-.55-.45-1-1-1h0ZM27,30.61v.2c0,.1-.09.19-.19.19h-5.62c-.11,0-.19-.09-.19-.19v-1.81h6v1.61h0ZM19,30.61c0,.22-.17.39-.39.39h-5.22c-.22,0-.39-.17-.39-.39v-1.61h6v1.61h0ZM27,27h-6v-2h6v2ZM29,25h6v2h-6v-2ZM19,27h-6v-2h6v2ZM29,29h6v1.61c0,.22-.17.39-.39.39h-5.22c-.22,0-.39-.17-.39-.39v-1.61h0ZM29,5.39c0-.22.17-.39.39-.39h5.22c.22,0,.39.18.39.39v17.61h-6V5.39h0ZM21.19,9h5.62c.1,0,.19.09.19.19v13.81h-6v-13.81c0-.1.09-.19.19-.19ZM13,5.39c0-.22.18-.39.39-.39h5.22c.22,0,.39.18.39.39v17.61h-6V5.39h0ZM7,15.79c0-.99.8-1.79,1.79-1.79h2.21v16.61c0,1.32,1.07,2.39,2.39,2.39h5.22c.49,0,.94-.15,1.32-.4.36.25.79.4,1.26.4h5.62c.47,0,.9-.15,1.26-.4.38.25.83.4,1.32.4h5.22c1.32,0,2.39-1.07,2.39-2.39V14h2.21c.99,0,1.79.8,1.79,1.79v21.21H7V15.79ZM42.91,39.96c0,1.68-1.37,3.04-3.04,3.04H8.04c-1.68,0-3.04-1.37-3.04-3.04v-.96h37.91v.96Z"/>
  <path class="cls-1" d="M16,15c.55,0,1-.45,1-1v-6c0-.55-.45-1-1-1s-1,.45-1,1v6c0,.55.45,1,1,1Z"/>
  <path class="cls-1" d="M32,15c.55,0,1-.45,1-1v-6c0-.55-.45-1-1-1s-1,.45-1,1v6c0,.55.45,1,1,1Z"/>
  <path class="cls-1" d="M24,19c.55,0,1-.45,1-1v-6c0-.55-.45-1-1-1s-1,.45-1,1v6c0,.55.45,1,1,1Z"/>
</svg>